<mxfile host="app.diagrams.net" agent="Mozilla/5.0 (Windows NT 10.0; Win64; x64) AppleWebKit/537.36 (KHTML, like Gecko) Chrome/131.0.0.0 Safari/537.36 Edg/131.0.0.0" version="25.0.0">
  <diagram id="EVfJHVFVR5TidSL9Ph4I" name="2-OP_Seq">
    <mxGraphModel dx="4659" dy="1400" grid="1" gridSize="10" guides="1" tooltips="1" connect="1" arrows="1" fold="1" page="1" pageScale="1" pageWidth="2339" pageHeight="3300" math="0" shadow="0">
      <root>
        <mxCell id="0" />
        <mxCell id="1" parent="0" />
        <mxCell id="MihCyDH1hDyaD9aGKYYH-7" value="" style="rounded=0;whiteSpace=wrap;html=1;fillColor=#d5e8d4;strokeColor=#82b366;" vertex="1" parent="1">
          <mxGeometry x="-355" y="675" width="1725" height="560" as="geometry" />
        </mxCell>
        <mxCell id="Tqrooi8KXNfOaJ4p9aSY-1" value="RP Boot" style="rounded=1;fillColor=#10739E;strokeColor=none;shadow=1;gradientColor=none;fontStyle=1;fontColor=#FFFFFF;fontSize=14;" parent="1" vertex="1">
          <mxGeometry x="330" y="20" width="200" height="60" as="geometry" />
        </mxCell>
        <mxCell id="Tqrooi8KXNfOaJ4p9aSY-2" value="ESP Boot" style="rounded=1;fillColor=#10739E;strokeColor=none;shadow=1;gradientColor=none;fontStyle=1;fontColor=#FFFFFF;fontSize=14;" parent="1" vertex="1">
          <mxGeometry x="600" y="20" width="200" height="60" as="geometry" />
        </mxCell>
        <mxCell id="Tqrooi8KXNfOaJ4p9aSY-3" value="Set All FB1 to Pull Down" style="rounded=1;fillColor=#10739E;strokeColor=none;shadow=1;gradientColor=none;fontStyle=1;fontColor=#FFFFFF;fontSize=14;" parent="1" vertex="1">
          <mxGeometry x="330" y="90" width="200" height="60" as="geometry" />
        </mxCell>
        <mxCell id="Tqrooi8KXNfOaJ4p9aSY-4" value="Init UART, I2C" style="rounded=1;fillColor=#10739E;strokeColor=none;shadow=1;gradientColor=none;fontStyle=1;fontColor=#FFFFFF;fontSize=14;" parent="1" vertex="1">
          <mxGeometry x="600" y="155" width="200" height="60" as="geometry" />
        </mxCell>
        <mxCell id="Tqrooi8KXNfOaJ4p9aSY-55" style="edgeStyle=orthogonalEdgeStyle;rounded=0;orthogonalLoop=1;jettySize=auto;html=1;exitX=0;exitY=0.5;exitDx=0;exitDy=0;entryX=1;entryY=0.5;entryDx=0;entryDy=0;" parent="1" source="Tqrooi8KXNfOaJ4p9aSY-6" target="Tqrooi8KXNfOaJ4p9aSY-53" edge="1">
          <mxGeometry relative="1" as="geometry" />
        </mxCell>
        <mxCell id="Tqrooi8KXNfOaJ4p9aSY-63" style="edgeStyle=orthogonalEdgeStyle;rounded=0;orthogonalLoop=1;jettySize=auto;html=1;exitX=1;exitY=0.5;exitDx=0;exitDy=0;entryX=0;entryY=0.5;entryDx=0;entryDy=0;" parent="1" source="Tqrooi8KXNfOaJ4p9aSY-6" target="Tqrooi8KXNfOaJ4p9aSY-33" edge="1">
          <mxGeometry relative="1" as="geometry" />
        </mxCell>
        <mxCell id="Tqrooi8KXNfOaJ4p9aSY-6" value="Handshake" style="rounded=1;fillColor=#10739E;strokeColor=none;shadow=1;gradientColor=none;fontStyle=1;fontColor=#FFFFFF;fontSize=14;" parent="1" vertex="1">
          <mxGeometry x="330" y="300" width="470" height="60" as="geometry" />
        </mxCell>
        <mxCell id="Tqrooi8KXNfOaJ4p9aSY-56" style="edgeStyle=orthogonalEdgeStyle;rounded=0;orthogonalLoop=1;jettySize=auto;html=1;exitX=0;exitY=0.5;exitDx=0;exitDy=0;" parent="1" source="Tqrooi8KXNfOaJ4p9aSY-58" edge="1">
          <mxGeometry relative="1" as="geometry">
            <mxPoint x="220" y="240" as="targetPoint" />
          </mxGeometry>
        </mxCell>
        <mxCell id="Tqrooi8KXNfOaJ4p9aSY-7" value="Init UART" style="rounded=1;fillColor=#10739E;strokeColor=none;shadow=1;gradientColor=none;fontStyle=1;fontColor=#FFFFFF;fontSize=14;" parent="1" vertex="1">
          <mxGeometry x="330" y="227" width="200" height="60" as="geometry" />
        </mxCell>
        <mxCell id="Tqrooi8KXNfOaJ4p9aSY-57" style="edgeStyle=orthogonalEdgeStyle;rounded=0;orthogonalLoop=1;jettySize=auto;html=1;exitX=0;exitY=0.5;exitDx=0;exitDy=0;entryX=0.987;entryY=0.374;entryDx=0;entryDy=0;entryPerimeter=0;" parent="1" target="Tqrooi8KXNfOaJ4p9aSY-53" edge="1">
          <mxGeometry relative="1" as="geometry">
            <mxPoint x="270" y="245" as="targetPoint" />
            <mxPoint x="380" y="190" as="sourcePoint" />
            <Array as="points">
              <mxPoint x="380" y="191" />
              <mxPoint x="280" y="191" />
              <mxPoint x="280" y="237" />
            </Array>
          </mxGeometry>
        </mxCell>
        <mxCell id="Tqrooi8KXNfOaJ4p9aSY-8" value="Check Modules" style="rounded=1;fillColor=#10739E;strokeColor=none;shadow=1;gradientColor=none;fontStyle=1;fontColor=#FFFFFF;fontSize=14;" parent="1" vertex="1">
          <mxGeometry x="330" y="155" width="200" height="60" as="geometry" />
        </mxCell>
        <mxCell id="Tqrooi8KXNfOaJ4p9aSY-11" value="Init led strip (Assign all gpio cnst)&#xa;8xO2- Yellow, Stat LED- Yellow" style="rounded=1;fillColor=#10739E;strokeColor=none;shadow=1;gradientColor=none;fontStyle=1;fontColor=#FFFFFF;fontSize=14;" parent="1" vertex="1">
          <mxGeometry x="570" y="90" width="260" height="60" as="geometry" />
        </mxCell>
        <mxCell id="Tqrooi8KXNfOaJ4p9aSY-12" value="Check Aiq, Motion Senosr" style="rounded=1;fillColor=#10739E;strokeColor=none;shadow=1;gradientColor=none;fontStyle=1;fontColor=#FFFFFF;fontSize=14;" parent="1" vertex="1">
          <mxGeometry x="600" y="227" width="200" height="60" as="geometry" />
        </mxCell>
        <mxCell id="Tqrooi8KXNfOaJ4p9aSY-20" value="HW CONFIG" style="swimlane;horizontal=0;whiteSpace=wrap;html=1;fillColor=#a0522d;strokeColor=#6D1F00;fontColor=#ffffff;" parent="1" vertex="1">
          <mxGeometry x="1080" y="15" width="400" height="515" as="geometry" />
        </mxCell>
        <mxCell id="Tqrooi8KXNfOaJ4p9aSY-21" value="" style="rounded=0;whiteSpace=wrap;html=1;fillColor=#a0522d;fontColor=#ffffff;strokeColor=#6D1F00;" parent="Tqrooi8KXNfOaJ4p9aSY-20" vertex="1">
          <mxGeometry x="30" y="5" width="220" height="500" as="geometry" />
        </mxCell>
        <mxCell id="Tqrooi8KXNfOaJ4p9aSY-13" value="AIQ&#xa;EN/DIS&#xa;GPIO" style="rounded=1;fillColor=#10739E;strokeColor=none;shadow=1;gradientColor=none;fontStyle=1;fontColor=#FFFFFF;fontSize=14;" parent="Tqrooi8KXNfOaJ4p9aSY-20" vertex="1">
          <mxGeometry x="40" y="15" width="200" height="80" as="geometry" />
        </mxCell>
        <mxCell id="Tqrooi8KXNfOaJ4p9aSY-34" value="DEV TYPE- SEQUA SENSE&#xa;DEV TYPE- SEQUA WALL" style="rounded=1;fillColor=#10739E;strokeColor=none;shadow=1;gradientColor=none;fontStyle=1;fontColor=#FFFFFF;fontSize=14;" parent="Tqrooi8KXNfOaJ4p9aSY-20" vertex="1">
          <mxGeometry x="40" y="205" width="200" height="80" as="geometry" />
        </mxCell>
        <mxCell id="Tqrooi8KXNfOaJ4p9aSY-43" value="8X MOD TYPE, POS" style="rounded=1;fillColor=#10739E;strokeColor=none;shadow=1;gradientColor=none;fontStyle=1;fontColor=#FFFFFF;fontSize=14;" parent="Tqrooi8KXNfOaJ4p9aSY-20" vertex="1">
          <mxGeometry x="40" y="305" width="200" height="80" as="geometry" />
        </mxCell>
        <mxCell id="Tqrooi8KXNfOaJ4p9aSY-39" style="edgeStyle=orthogonalEdgeStyle;rounded=0;orthogonalLoop=1;jettySize=auto;html=1;exitX=1;exitY=0.5;exitDx=0;exitDy=0;" parent="1" source="Tqrooi8KXNfOaJ4p9aSY-22" target="Tqrooi8KXNfOaJ4p9aSY-33" edge="1">
          <mxGeometry relative="1" as="geometry">
            <Array as="points">
              <mxPoint x="1340" y="162" />
              <mxPoint x="1340" y="210" />
              <mxPoint x="851" y="210" />
            </Array>
          </mxGeometry>
        </mxCell>
        <mxCell id="Tqrooi8KXNfOaJ4p9aSY-22" value="MOT&#xa;EN/DIS&#xa;GPIO" style="rounded=1;fillColor=#10739E;strokeColor=none;shadow=1;gradientColor=none;fontStyle=1;fontColor=#FFFFFF;fontSize=14;" parent="1" vertex="1">
          <mxGeometry x="1123" y="122" width="200" height="80" as="geometry" />
        </mxCell>
        <mxCell id="Tqrooi8KXNfOaJ4p9aSY-29" value="Send Mod Types" style="rounded=1;fillColor=#10739E;strokeColor=none;shadow=1;gradientColor=none;fontStyle=1;fontColor=#FFFFFF;fontSize=14;" parent="1" vertex="1">
          <mxGeometry x="330" y="370" width="200" height="60" as="geometry" />
        </mxCell>
        <mxCell id="Tqrooi8KXNfOaJ4p9aSY-64" style="edgeStyle=orthogonalEdgeStyle;rounded=0;orthogonalLoop=1;jettySize=auto;html=1;exitX=1;exitY=0.5;exitDx=0;exitDy=0;entryX=0;entryY=0.5;entryDx=0;entryDy=0;" parent="1" source="Tqrooi8KXNfOaJ4p9aSY-65" target="Tqrooi8KXNfOaJ4p9aSY-60" edge="1">
          <mxGeometry relative="1" as="geometry" />
        </mxCell>
        <mxCell id="Tqrooi8KXNfOaJ4p9aSY-30" value="Recieve Mod Types" style="rounded=1;fillColor=#10739E;strokeColor=none;shadow=1;gradientColor=none;fontStyle=1;fontColor=#FFFFFF;fontSize=14;" parent="1" vertex="1">
          <mxGeometry x="600" y="370" width="200" height="60" as="geometry" />
        </mxCell>
        <mxCell id="Tqrooi8KXNfOaJ4p9aSY-48" value="" style="edgeStyle=orthogonalEdgeStyle;rounded=0;orthogonalLoop=1;jettySize=auto;html=1;" parent="1" source="Tqrooi8KXNfOaJ4p9aSY-33" target="Tqrooi8KXNfOaJ4p9aSY-47" edge="1">
          <mxGeometry relative="1" as="geometry" />
        </mxCell>
        <mxCell id="Tqrooi8KXNfOaJ4p9aSY-33" value="SENSE&lt;div&gt;MODULE&lt;/div&gt;&lt;div&gt;DETECTED&lt;/div&gt;" style="rhombus;whiteSpace=wrap;html=1;fillColor=#e51400;fontColor=#ffffff;strokeColor=#B20000;" parent="1" vertex="1">
          <mxGeometry x="811" y="280" width="110" height="90" as="geometry" />
        </mxCell>
        <mxCell id="Tqrooi8KXNfOaJ4p9aSY-38" style="edgeStyle=orthogonalEdgeStyle;rounded=0;orthogonalLoop=1;jettySize=auto;html=1;exitX=1;exitY=0.5;exitDx=0;exitDy=0;" parent="1" source="Tqrooi8KXNfOaJ4p9aSY-13" target="Tqrooi8KXNfOaJ4p9aSY-33" edge="1">
          <mxGeometry relative="1" as="geometry">
            <mxPoint x="1190" y="200" as="targetPoint" />
            <Array as="points">
              <mxPoint x="1340" y="70" />
              <mxPoint x="1340" y="210" />
              <mxPoint x="851" y="210" />
            </Array>
          </mxGeometry>
        </mxCell>
        <mxCell id="Tqrooi8KXNfOaJ4p9aSY-40" style="edgeStyle=orthogonalEdgeStyle;rounded=0;orthogonalLoop=1;jettySize=auto;html=1;exitX=1;exitY=0.5;exitDx=0;exitDy=0;entryX=0;entryY=0.5;entryDx=0;entryDy=0;" parent="1" source="Tqrooi8KXNfOaJ4p9aSY-12" target="Tqrooi8KXNfOaJ4p9aSY-13" edge="1">
          <mxGeometry relative="1" as="geometry" />
        </mxCell>
        <mxCell id="Tqrooi8KXNfOaJ4p9aSY-41" style="edgeStyle=orthogonalEdgeStyle;rounded=0;orthogonalLoop=1;jettySize=auto;html=1;exitX=1;exitY=0.25;exitDx=0;exitDy=0;entryX=0;entryY=0.5;entryDx=0;entryDy=0;" parent="1" source="Tqrooi8KXNfOaJ4p9aSY-12" target="Tqrooi8KXNfOaJ4p9aSY-22" edge="1">
          <mxGeometry relative="1" as="geometry">
            <Array as="points">
              <mxPoint x="800" y="257" />
              <mxPoint x="960" y="257" />
              <mxPoint x="960" y="162" />
            </Array>
          </mxGeometry>
        </mxCell>
        <mxCell id="Tqrooi8KXNfOaJ4p9aSY-49" style="edgeStyle=orthogonalEdgeStyle;rounded=0;orthogonalLoop=1;jettySize=auto;html=1;exitX=0.5;exitY=0;exitDx=0;exitDy=0;" parent="1" source="Tqrooi8KXNfOaJ4p9aSY-47" target="Tqrooi8KXNfOaJ4p9aSY-34" edge="1">
          <mxGeometry relative="1" as="geometry" />
        </mxCell>
        <mxCell id="Tqrooi8KXNfOaJ4p9aSY-61" style="edgeStyle=orthogonalEdgeStyle;rounded=0;orthogonalLoop=1;jettySize=auto;html=1;exitX=0.5;exitY=1;exitDx=0;exitDy=0;entryX=0.5;entryY=0;entryDx=0;entryDy=0;" parent="1" source="Tqrooi8KXNfOaJ4p9aSY-47" target="Tqrooi8KXNfOaJ4p9aSY-60" edge="1">
          <mxGeometry relative="1" as="geometry" />
        </mxCell>
        <mxCell id="Tqrooi8KXNfOaJ4p9aSY-47" value="No history of&lt;div&gt;Module reg&lt;/div&gt;" style="rhombus;whiteSpace=wrap;html=1;fillColor=#e51400;fontColor=#ffffff;strokeColor=#B20000;" parent="1" vertex="1">
          <mxGeometry x="950" y="280" width="110" height="90" as="geometry" />
        </mxCell>
        <mxCell id="Tqrooi8KXNfOaJ4p9aSY-53" value="LED RED" style="whiteSpace=wrap;html=1;fillColor=#e51400;strokeColor=#B20000;fontColor=#ffffff;" parent="1" vertex="1">
          <mxGeometry x="100" y="215" width="120" height="60" as="geometry" />
        </mxCell>
        <mxCell id="Tqrooi8KXNfOaJ4p9aSY-59" value="" style="edgeStyle=orthogonalEdgeStyle;rounded=0;orthogonalLoop=1;jettySize=auto;html=1;exitX=0;exitY=0.5;exitDx=0;exitDy=0;" parent="1" source="Tqrooi8KXNfOaJ4p9aSY-7" target="Tqrooi8KXNfOaJ4p9aSY-58" edge="1">
          <mxGeometry relative="1" as="geometry">
            <mxPoint x="220" y="240" as="targetPoint" />
            <mxPoint x="330" y="257" as="sourcePoint" />
          </mxGeometry>
        </mxCell>
        <mxCell id="Tqrooi8KXNfOaJ4p9aSY-58" value="" style="rhombus;whiteSpace=wrap;html=1;fillColor=#e51400;fontColor=#ffffff;strokeColor=#B20000;" parent="1" vertex="1">
          <mxGeometry x="260" y="230" width="30" height="30" as="geometry" />
        </mxCell>
        <mxCell id="Tqrooi8KXNfOaJ4p9aSY-60" value="STAT LED RED" style="whiteSpace=wrap;html=1;fillColor=#e51400;strokeColor=#B20000;fontColor=#ffffff;" parent="1" vertex="1">
          <mxGeometry x="945" y="390" width="120" height="60" as="geometry" />
        </mxCell>
        <mxCell id="Tqrooi8KXNfOaJ4p9aSY-66" value="" style="edgeStyle=orthogonalEdgeStyle;rounded=0;orthogonalLoop=1;jettySize=auto;html=1;exitX=1;exitY=0.5;exitDx=0;exitDy=0;entryX=0;entryY=0.5;entryDx=0;entryDy=0;" parent="1" source="Tqrooi8KXNfOaJ4p9aSY-30" target="Tqrooi8KXNfOaJ4p9aSY-65" edge="1">
          <mxGeometry relative="1" as="geometry">
            <mxPoint x="800" y="400" as="sourcePoint" />
            <mxPoint x="945" y="420" as="targetPoint" />
          </mxGeometry>
        </mxCell>
        <mxCell id="Tqrooi8KXNfOaJ4p9aSY-65" value="" style="rhombus;whiteSpace=wrap;html=1;fillColor=#e51400;fontColor=#ffffff;strokeColor=#B20000;" parent="1" vertex="1">
          <mxGeometry x="860" y="400" width="30" height="30" as="geometry" />
        </mxCell>
        <mxCell id="Tqrooi8KXNfOaJ4p9aSY-67" style="edgeStyle=orthogonalEdgeStyle;rounded=0;orthogonalLoop=1;jettySize=auto;html=1;exitX=1;exitY=0.5;exitDx=0;exitDy=0;entryX=0;entryY=0.5;entryDx=0;entryDy=0;" parent="1" source="Tqrooi8KXNfOaJ4p9aSY-30" target="Tqrooi8KXNfOaJ4p9aSY-43" edge="1">
          <mxGeometry relative="1" as="geometry">
            <mxPoint x="811" y="462.8" as="sourcePoint" />
            <mxPoint x="1133.4" y="430.00000000000006" as="targetPoint" />
            <Array as="points">
              <mxPoint x="930" y="400" />
              <mxPoint x="930" y="370" />
              <mxPoint x="1120" y="370" />
            </Array>
          </mxGeometry>
        </mxCell>
        <mxCell id="Tqrooi8KXNfOaJ4p9aSY-69" value="MOD CONTROL" style="swimlane;horizontal=0;whiteSpace=wrap;html=1;fillColor=#a0522d;strokeColor=#6D1F00;fontColor=#ffffff;" parent="1" vertex="1">
          <mxGeometry x="-321" y="691" width="761" height="515" as="geometry" />
        </mxCell>
        <mxCell id="Tqrooi8KXNfOaJ4p9aSY-70" value="" style="rounded=0;whiteSpace=wrap;html=1;fillColor=#a0522d;fontColor=#ffffff;strokeColor=#6D1F00;" parent="Tqrooi8KXNfOaJ4p9aSY-69" vertex="1">
          <mxGeometry x="30" y="5" width="220" height="500" as="geometry" />
        </mxCell>
        <mxCell id="Tqrooi8KXNfOaJ4p9aSY-71" value="8 X MOD STATUS&#xa;LEVEL&#xa;STATE" style="rounded=1;fillColor=#10739E;strokeColor=none;shadow=1;gradientColor=none;fontStyle=1;fontColor=#FFFFFF;fontSize=14;" parent="Tqrooi8KXNfOaJ4p9aSY-69" vertex="1">
          <mxGeometry x="40" y="15" width="200" height="80" as="geometry" />
        </mxCell>
        <mxCell id="Tqrooi8KXNfOaJ4p9aSY-110" value="GPIO FB Trigger" style="rounded=1;fillColor=#10739E;strokeColor=none;shadow=1;gradientColor=none;fontStyle=1;fontColor=#FFFFFF;fontSize=14;" parent="Tqrooi8KXNfOaJ4p9aSY-69" vertex="1">
          <mxGeometry x="441" y="95" width="200" height="60" as="geometry" />
        </mxCell>
        <mxCell id="Tqrooi8KXNfOaJ4p9aSY-126" value="MATTER TRIG" style="rounded=1;fillColor=#10739E;strokeColor=none;shadow=1;gradientColor=none;fontStyle=1;fontColor=#FFFFFF;fontSize=14;" parent="Tqrooi8KXNfOaJ4p9aSY-69" vertex="1">
          <mxGeometry x="321" y="429" width="200" height="60" as="geometry" />
        </mxCell>
        <mxCell id="MihCyDH1hDyaD9aGKYYH-1" style="edgeStyle=orthogonalEdgeStyle;rounded=0;orthogonalLoop=1;jettySize=auto;html=1;exitX=1;exitY=0.5;exitDx=0;exitDy=0;entryX=1;entryY=0.5;entryDx=0;entryDy=0;" edge="1" parent="1" source="Tqrooi8KXNfOaJ4p9aSY-74" target="Tqrooi8KXNfOaJ4p9aSY-111">
          <mxGeometry relative="1" as="geometry">
            <Array as="points">
              <mxPoint x="410" y="732" />
              <mxPoint x="410" y="892" />
            </Array>
          </mxGeometry>
        </mxCell>
        <mxCell id="Tqrooi8KXNfOaJ4p9aSY-74" value="!Init?=?&#xa;Init()&#xa;Read Status from NVS" style="rounded=1;fillColor=#10739E;strokeColor=none;shadow=1;gradientColor=none;fontStyle=1;fontColor=#FFFFFF;fontSize=14;" parent="1" vertex="1">
          <mxGeometry x="120" y="702" width="200" height="60" as="geometry" />
        </mxCell>
        <mxCell id="Tqrooi8KXNfOaJ4p9aSY-76" value="HW CONFIG" style="swimlane;horizontal=0;whiteSpace=wrap;html=1;fillColor=#a0522d;strokeColor=#6D1F00;fontColor=#ffffff;" parent="1" vertex="1">
          <mxGeometry x="-321" y="90" width="400" height="425" as="geometry" />
        </mxCell>
        <mxCell id="Tqrooi8KXNfOaJ4p9aSY-77" value="" style="rounded=0;whiteSpace=wrap;html=1;fillColor=#a0522d;fontColor=#ffffff;strokeColor=#6D1F00;" parent="Tqrooi8KXNfOaJ4p9aSY-76" vertex="1">
          <mxGeometry x="30" y="5" width="220" height="415" as="geometry" />
        </mxCell>
        <mxCell id="Tqrooi8KXNfOaJ4p9aSY-78" value="BUZ GPIO" style="rounded=1;fillColor=#10739E;strokeColor=none;shadow=1;gradientColor=none;fontStyle=1;fontColor=#FFFFFF;fontSize=14;" parent="Tqrooi8KXNfOaJ4p9aSY-76" vertex="1">
          <mxGeometry x="40" y="109" width="200" height="80" as="geometry" />
        </mxCell>
        <mxCell id="Tqrooi8KXNfOaJ4p9aSY-79" value="8X MOD TYPE, POS" style="rounded=1;fillColor=#10739E;strokeColor=none;shadow=1;gradientColor=none;fontStyle=1;fontColor=#FFFFFF;fontSize=14;" parent="Tqrooi8KXNfOaJ4p9aSY-76" vertex="1">
          <mxGeometry x="40" y="205" width="200" height="80" as="geometry" />
        </mxCell>
        <mxCell id="Tqrooi8KXNfOaJ4p9aSY-80" value="8X MOD GPIO" style="rounded=1;fillColor=#10739E;strokeColor=none;shadow=1;gradientColor=none;fontStyle=1;fontColor=#FFFFFF;fontSize=14;" parent="Tqrooi8KXNfOaJ4p9aSY-76" vertex="1">
          <mxGeometry x="40" y="305" width="200" height="80" as="geometry" />
        </mxCell>
        <mxCell id="Tqrooi8KXNfOaJ4p9aSY-84" style="edgeStyle=orthogonalEdgeStyle;rounded=0;orthogonalLoop=1;jettySize=auto;html=1;" parent="Tqrooi8KXNfOaJ4p9aSY-76" source="Tqrooi8KXNfOaJ4p9aSY-8" edge="1">
          <mxGeometry relative="1" as="geometry">
            <mxPoint x="582" y="95" as="sourcePoint" />
            <mxPoint x="241" y="240" as="targetPoint" />
            <Array as="points">
              <mxPoint x="301" y="95" />
              <mxPoint x="301" y="245" />
            </Array>
          </mxGeometry>
        </mxCell>
        <mxCell id="Tqrooi8KXNfOaJ4p9aSY-88" style="edgeStyle=orthogonalEdgeStyle;rounded=0;orthogonalLoop=1;jettySize=auto;html=1;exitX=0;exitY=0.5;exitDx=0;exitDy=0;" parent="1" source="Tqrooi8KXNfOaJ4p9aSY-82" edge="1">
          <mxGeometry relative="1" as="geometry">
            <mxPoint x="-70" y="430" as="targetPoint" />
            <Array as="points">
              <mxPoint x="200" y="560" />
              <mxPoint x="200" y="430" />
            </Array>
          </mxGeometry>
        </mxCell>
        <mxCell id="Tqrooi8KXNfOaJ4p9aSY-89" style="edgeStyle=orthogonalEdgeStyle;rounded=0;orthogonalLoop=1;jettySize=auto;html=1;exitX=0;exitY=0.5;exitDx=0;exitDy=0;entryX=1;entryY=0.5;entryDx=0;entryDy=0;" parent="1" source="Tqrooi8KXNfOaJ4p9aSY-82" target="Tqrooi8KXNfOaJ4p9aSY-78" edge="1">
          <mxGeometry relative="1" as="geometry">
            <Array as="points">
              <mxPoint x="200" y="560" />
              <mxPoint x="200" y="300" />
              <mxPoint x="-50" y="300" />
              <mxPoint x="-50" y="239" />
            </Array>
          </mxGeometry>
        </mxCell>
        <mxCell id="Tqrooi8KXNfOaJ4p9aSY-82" value="HW ALLOCATOR" style="rounded=1;fillColor=#10739E;strokeColor=none;shadow=1;gradientColor=none;fontStyle=1;fontColor=#FFFFFF;fontSize=14;" parent="1" vertex="1">
          <mxGeometry x="330" y="530" width="200" height="60" as="geometry" />
        </mxCell>
        <mxCell id="Tqrooi8KXNfOaJ4p9aSY-92" style="edgeStyle=orthogonalEdgeStyle;rounded=0;orthogonalLoop=1;jettySize=auto;html=1;exitX=1;exitY=0.5;exitDx=0;exitDy=0;" parent="1" source="Tqrooi8KXNfOaJ4p9aSY-83" edge="1">
          <mxGeometry relative="1" as="geometry">
            <mxPoint x="1330" y="80" as="targetPoint" />
            <Array as="points">
              <mxPoint x="1390" y="560" />
              <mxPoint x="1390" y="80" />
            </Array>
          </mxGeometry>
        </mxCell>
        <mxCell id="Tqrooi8KXNfOaJ4p9aSY-93" style="edgeStyle=orthogonalEdgeStyle;rounded=0;orthogonalLoop=1;jettySize=auto;html=1;exitX=1;exitY=0.5;exitDx=0;exitDy=0;entryX=1;entryY=0.5;entryDx=0;entryDy=0;" parent="1" source="Tqrooi8KXNfOaJ4p9aSY-83" target="Tqrooi8KXNfOaJ4p9aSY-22" edge="1">
          <mxGeometry relative="1" as="geometry">
            <Array as="points">
              <mxPoint x="1390" y="560" />
              <mxPoint x="1390" y="162" />
            </Array>
          </mxGeometry>
        </mxCell>
        <mxCell id="Tqrooi8KXNfOaJ4p9aSY-95" style="edgeStyle=orthogonalEdgeStyle;rounded=0;orthogonalLoop=1;jettySize=auto;html=1;exitX=1;exitY=0.5;exitDx=0;exitDy=0;entryX=1;entryY=0.5;entryDx=0;entryDy=0;" parent="1" source="Tqrooi8KXNfOaJ4p9aSY-83" target="Tqrooi8KXNfOaJ4p9aSY-94" edge="1">
          <mxGeometry relative="1" as="geometry">
            <Array as="points">
              <mxPoint x="1390" y="560" />
              <mxPoint x="1390" y="450" />
            </Array>
          </mxGeometry>
        </mxCell>
        <mxCell id="Tqrooi8KXNfOaJ4p9aSY-83" value="HW ALLOCATOR" style="rounded=1;fillColor=#10739E;strokeColor=none;shadow=1;gradientColor=none;fontStyle=1;fontColor=#FFFFFF;fontSize=14;" parent="1" vertex="1">
          <mxGeometry x="600" y="530" width="200" height="60" as="geometry" />
        </mxCell>
        <mxCell id="Tqrooi8KXNfOaJ4p9aSY-85" style="edgeStyle=orthogonalEdgeStyle;rounded=0;orthogonalLoop=1;jettySize=auto;html=1;exitX=1;exitY=0.5;exitDx=0;exitDy=0;entryX=0;entryY=0.5;entryDx=0;entryDy=0;" parent="1" source="Tqrooi8KXNfOaJ4p9aSY-79" target="Tqrooi8KXNfOaJ4p9aSY-29" edge="1">
          <mxGeometry relative="1" as="geometry" />
        </mxCell>
        <mxCell id="Tqrooi8KXNfOaJ4p9aSY-90" value="" style="shape=flexArrow;endArrow=classic;html=1;rounded=0;entryX=0;entryY=0.5;entryDx=0;entryDy=0;exitX=1;exitY=0.5;exitDx=0;exitDy=0;" parent="1" source="Tqrooi8KXNfOaJ4p9aSY-109" target="Tqrooi8KXNfOaJ4p9aSY-75" edge="1">
          <mxGeometry width="50" height="50" relative="1" as="geometry">
            <mxPoint x="530" y="732" as="sourcePoint" />
            <mxPoint x="580" y="682" as="targetPoint" />
            <Array as="points">
              <mxPoint x="520" y="1052" />
              <mxPoint x="520" y="732" />
            </Array>
          </mxGeometry>
        </mxCell>
        <mxCell id="Tqrooi8KXNfOaJ4p9aSY-91" value="" style="shape=flexArrow;endArrow=classic;html=1;rounded=0;entryX=0;entryY=0.5;entryDx=0;entryDy=0;" parent="1" edge="1">
          <mxGeometry width="50" height="50" relative="1" as="geometry">
            <mxPoint x="530" y="401" as="sourcePoint" />
            <mxPoint x="600" y="401" as="targetPoint" />
          </mxGeometry>
        </mxCell>
        <mxCell id="Tqrooi8KXNfOaJ4p9aSY-94" value="8X MOD LED EN/DIS, NO" style="rounded=1;fillColor=#10739E;strokeColor=none;shadow=1;gradientColor=none;fontStyle=1;fontColor=#FFFFFF;fontSize=14;" parent="1" vertex="1">
          <mxGeometry x="1120" y="410" width="200" height="80" as="geometry" />
        </mxCell>
        <mxCell id="Tqrooi8KXNfOaJ4p9aSY-96" value="Generate Matter Dev&#xa;" style="rounded=1;fillColor=#10739E;strokeColor=none;shadow=1;gradientColor=none;fontStyle=1;fontColor=#FFFFFF;fontSize=14;" parent="1" vertex="1">
          <mxGeometry x="600" y="450" width="200" height="60" as="geometry" />
        </mxCell>
        <mxCell id="Tqrooi8KXNfOaJ4p9aSY-99" value="MOD CONTROL" style="swimlane;horizontal=0;whiteSpace=wrap;html=1;fillColor=#a0522d;strokeColor=#6D1F00;fontColor=#ffffff;direction=west;" parent="1" vertex="1">
          <mxGeometry x="811" y="691" width="529" height="515" as="geometry" />
        </mxCell>
        <mxCell id="Tqrooi8KXNfOaJ4p9aSY-100" value="" style="rounded=0;whiteSpace=wrap;html=1;fillColor=#a0522d;fontColor=#ffffff;strokeColor=#6D1F00;" parent="Tqrooi8KXNfOaJ4p9aSY-99" vertex="1">
          <mxGeometry x="279" y="7.5" width="220" height="500" as="geometry" />
        </mxCell>
        <mxCell id="Tqrooi8KXNfOaJ4p9aSY-101" value="8 X MOD STATUS&#xa;LEVEL&#xa;STATE" style="rounded=1;fillColor=#10739E;strokeColor=none;shadow=1;gradientColor=none;fontStyle=1;fontColor=#FFFFFF;fontSize=14;" parent="Tqrooi8KXNfOaJ4p9aSY-99" vertex="1">
          <mxGeometry x="289" y="15" width="200" height="80" as="geometry" />
        </mxCell>
        <mxCell id="MihCyDH1hDyaD9aGKYYH-3" style="edgeStyle=orthogonalEdgeStyle;rounded=0;orthogonalLoop=1;jettySize=auto;html=1;exitX=0.5;exitY=1;exitDx=0;exitDy=0;entryX=0.5;entryY=0;entryDx=0;entryDy=0;" edge="1" parent="Tqrooi8KXNfOaJ4p9aSY-99" source="Tqrooi8KXNfOaJ4p9aSY-106" target="Tqrooi8KXNfOaJ4p9aSY-130">
          <mxGeometry relative="1" as="geometry" />
        </mxCell>
        <mxCell id="Tqrooi8KXNfOaJ4p9aSY-106" value="Matter Trigger&#xa;(For All Av. Modules)" style="rounded=1;fillColor=#10739E;strokeColor=none;shadow=1;gradientColor=none;fontStyle=1;fontColor=#FFFFFF;fontSize=14;" parent="Tqrooi8KXNfOaJ4p9aSY-99" vertex="1">
          <mxGeometry x="19" y="81" width="200" height="60" as="geometry" />
        </mxCell>
        <mxCell id="MihCyDH1hDyaD9aGKYYH-2" style="edgeStyle=orthogonalEdgeStyle;rounded=0;orthogonalLoop=1;jettySize=auto;html=1;exitX=0.5;exitY=1;exitDx=0;exitDy=0;entryX=0.5;entryY=0;entryDx=0;entryDy=0;" edge="1" parent="Tqrooi8KXNfOaJ4p9aSY-99" source="Tqrooi8KXNfOaJ4p9aSY-75" target="Tqrooi8KXNfOaJ4p9aSY-106">
          <mxGeometry relative="1" as="geometry" />
        </mxCell>
        <mxCell id="Tqrooi8KXNfOaJ4p9aSY-75" value="Read Status" style="rounded=1;fillColor=#10739E;strokeColor=none;shadow=1;gradientColor=none;fontStyle=1;fontColor=#FFFFFF;fontSize=14;" parent="Tqrooi8KXNfOaJ4p9aSY-99" vertex="1">
          <mxGeometry x="19" y="7.5" width="200" height="60" as="geometry" />
        </mxCell>
        <mxCell id="Tqrooi8KXNfOaJ4p9aSY-123" style="edgeStyle=orthogonalEdgeStyle;rounded=0;orthogonalLoop=1;jettySize=auto;html=1;exitX=1;exitY=0.5;exitDx=0;exitDy=0;entryX=0;entryY=0.5;entryDx=0;entryDy=0;" parent="Tqrooi8KXNfOaJ4p9aSY-99" source="Tqrooi8KXNfOaJ4p9aSY-120" target="Tqrooi8KXNfOaJ4p9aSY-122" edge="1">
          <mxGeometry relative="1" as="geometry" />
        </mxCell>
        <mxCell id="Tqrooi8KXNfOaJ4p9aSY-120" value="Matter&#xa;COMMAND&#xa;" style="rounded=1;fillColor=#10739E;strokeColor=none;shadow=1;gradientColor=none;fontStyle=1;fontColor=#FFFFFF;fontSize=14;" parent="Tqrooi8KXNfOaJ4p9aSY-99" vertex="1">
          <mxGeometry x="19" y="237.5" width="200" height="60" as="geometry" />
        </mxCell>
        <mxCell id="MihCyDH1hDyaD9aGKYYH-9" style="edgeStyle=orthogonalEdgeStyle;rounded=0;orthogonalLoop=1;jettySize=auto;html=1;exitX=0.5;exitY=1;exitDx=0;exitDy=0;entryX=1;entryY=0.5;entryDx=0;entryDy=0;" edge="1" parent="Tqrooi8KXNfOaJ4p9aSY-99" source="Tqrooi8KXNfOaJ4p9aSY-122" target="Tqrooi8KXNfOaJ4p9aSY-124">
          <mxGeometry relative="1" as="geometry" />
        </mxCell>
        <mxCell id="Tqrooi8KXNfOaJ4p9aSY-122" value="8 X MOD CTR CMD&#xa;POS, CMD ID, LEV, STATE" style="rounded=1;fillColor=#10739E;strokeColor=none;shadow=1;gradientColor=none;fontStyle=1;fontColor=#FFFFFF;fontSize=14;" parent="Tqrooi8KXNfOaJ4p9aSY-99" vertex="1">
          <mxGeometry x="290" y="227.5" width="200" height="80" as="geometry" />
        </mxCell>
        <mxCell id="Tqrooi8KXNfOaJ4p9aSY-124" value="UPD REQ&#xa;POS, CMD, LEV, STATE" style="rounded=1;fillColor=#10739E;strokeColor=none;shadow=1;gradientColor=none;fontStyle=1;fontColor=#FFFFFF;fontSize=14;" parent="Tqrooi8KXNfOaJ4p9aSY-99" vertex="1">
          <mxGeometry x="19" y="307.5" width="200" height="60" as="geometry" />
        </mxCell>
        <mxCell id="Tqrooi8KXNfOaJ4p9aSY-130" value="LED Strip Updt.&#xa;Req" style="rounded=1;fillColor=#10739E;strokeColor=none;shadow=1;gradientColor=none;fontStyle=1;fontColor=#FFFFFF;fontSize=14;" parent="Tqrooi8KXNfOaJ4p9aSY-99" vertex="1">
          <mxGeometry x="19" y="151" width="200" height="60" as="geometry" />
        </mxCell>
        <mxCell id="MihCyDH1hDyaD9aGKYYH-4" style="edgeStyle=orthogonalEdgeStyle;rounded=0;orthogonalLoop=1;jettySize=auto;html=1;exitX=0.5;exitY=1;exitDx=0;exitDy=0;" edge="1" parent="Tqrooi8KXNfOaJ4p9aSY-99" source="Tqrooi8KXNfOaJ4p9aSY-130" target="Tqrooi8KXNfOaJ4p9aSY-130">
          <mxGeometry relative="1" as="geometry" />
        </mxCell>
        <mxCell id="MihCyDH1hDyaD9aGKYYH-5" style="edgeStyle=orthogonalEdgeStyle;rounded=0;orthogonalLoop=1;jettySize=auto;html=1;exitX=0.5;exitY=1;exitDx=0;exitDy=0;" edge="1" parent="Tqrooi8KXNfOaJ4p9aSY-99" source="Tqrooi8KXNfOaJ4p9aSY-120" target="Tqrooi8KXNfOaJ4p9aSY-120">
          <mxGeometry relative="1" as="geometry" />
        </mxCell>
        <mxCell id="Tqrooi8KXNfOaJ4p9aSY-109" value="Send Module Status" style="rounded=1;fillColor=#10739E;strokeColor=none;shadow=1;gradientColor=none;fontStyle=1;fontColor=#FFFFFF;fontSize=14;" parent="1" vertex="1">
          <mxGeometry x="120" y="1022" width="200" height="60" as="geometry" />
        </mxCell>
        <mxCell id="Tqrooi8KXNfOaJ4p9aSY-117" style="edgeStyle=orthogonalEdgeStyle;rounded=0;orthogonalLoop=1;jettySize=auto;html=1;exitX=0.5;exitY=1;exitDx=0;exitDy=0;entryX=0.5;entryY=0;entryDx=0;entryDy=0;" parent="1" source="Tqrooi8KXNfOaJ4p9aSY-110" target="Tqrooi8KXNfOaJ4p9aSY-111" edge="1">
          <mxGeometry relative="1" as="geometry" />
        </mxCell>
        <mxCell id="Tqrooi8KXNfOaJ4p9aSY-118" style="edgeStyle=orthogonalEdgeStyle;rounded=0;orthogonalLoop=1;jettySize=auto;html=1;exitX=0.5;exitY=1;exitDx=0;exitDy=0;entryX=0.5;entryY=0;entryDx=0;entryDy=0;" parent="1" source="Tqrooi8KXNfOaJ4p9aSY-111" target="Tqrooi8KXNfOaJ4p9aSY-115" edge="1">
          <mxGeometry relative="1" as="geometry" />
        </mxCell>
        <mxCell id="Tqrooi8KXNfOaJ4p9aSY-111" value="Module Controller" style="rounded=1;fillColor=#10739E;strokeColor=none;shadow=1;gradientColor=none;fontStyle=1;fontColor=#FFFFFF;fontSize=14;" parent="1" vertex="1">
          <mxGeometry x="120" y="862" width="200" height="60" as="geometry" />
        </mxCell>
        <mxCell id="Tqrooi8KXNfOaJ4p9aSY-119" style="edgeStyle=orthogonalEdgeStyle;rounded=0;orthogonalLoop=1;jettySize=auto;html=1;exitX=0.5;exitY=1;exitDx=0;exitDy=0;entryX=0.5;entryY=0;entryDx=0;entryDy=0;" parent="1" source="Tqrooi8KXNfOaJ4p9aSY-115" target="Tqrooi8KXNfOaJ4p9aSY-109" edge="1">
          <mxGeometry relative="1" as="geometry" />
        </mxCell>
        <mxCell id="Tqrooi8KXNfOaJ4p9aSY-115" value="GPIO Output Trigger" style="rounded=1;fillColor=#10739E;strokeColor=none;shadow=1;gradientColor=none;fontStyle=1;fontColor=#FFFFFF;fontSize=14;" parent="1" vertex="1">
          <mxGeometry x="120" y="942" width="200" height="60" as="geometry" />
        </mxCell>
        <mxCell id="Tqrooi8KXNfOaJ4p9aSY-128" style="edgeStyle=orthogonalEdgeStyle;rounded=0;orthogonalLoop=1;jettySize=auto;html=1;exitX=0.5;exitY=0;exitDx=0;exitDy=0;entryX=0;entryY=0.5;entryDx=0;entryDy=0;" parent="1" source="Tqrooi8KXNfOaJ4p9aSY-126" target="Tqrooi8KXNfOaJ4p9aSY-111" edge="1">
          <mxGeometry relative="1" as="geometry" />
        </mxCell>
        <mxCell id="Tqrooi8KXNfOaJ4p9aSY-129" value="" style="shape=flexArrow;endArrow=classic;html=1;rounded=0;entryX=1;entryY=0.5;entryDx=0;entryDy=0;exitX=0.5;exitY=1;exitDx=0;exitDy=0;" parent="1" source="Tqrooi8KXNfOaJ4p9aSY-124" target="Tqrooi8KXNfOaJ4p9aSY-126" edge="1">
          <mxGeometry width="50" height="50" relative="1" as="geometry">
            <mxPoint x="510" y="882" as="sourcePoint" />
            <mxPoint x="560" y="832" as="targetPoint" />
            <Array as="points">
              <mxPoint x="930" y="1142" />
            </Array>
          </mxGeometry>
        </mxCell>
        <mxCell id="MihCyDH1hDyaD9aGKYYH-8" value="Ready" style="rounded=1;fillColor=#008a00;strokeColor=#005700;shadow=1;fontStyle=1;fontColor=#ffffff;fontSize=14;" vertex="1" parent="1">
          <mxGeometry x="410" y="600" width="280" height="60" as="geometry" />
        </mxCell>
        <mxCell id="MihCyDH1hDyaD9aGKYYH-10" value="De init pull down" style="rounded=1;fillColor=#10739E;strokeColor=none;shadow=1;gradientColor=none;fontStyle=1;fontColor=#FFFFFF;fontSize=14;" vertex="1" parent="1">
          <mxGeometry x="330" y="450" width="200" height="60" as="geometry" />
        </mxCell>
      </root>
    </mxGraphModel>
  </diagram>
</mxfile>
